# xmcd
#
# Track frame offsets: 
#        182
#        21532
#        39500
#        56477
#        74920
#        96367
#        114852
#        133950
#        156915
#        172472
#        190622
#        210247
#        228065
#
# Disc length: 3089 seconds
#
# Revision: 0
# Processed by: cddbd v1.4PL0 Copyright (c) Steve Scherf et al.
# Submitted via: ExactAudioCopy v0.90b3
#
DISCID=bb0c0f0d
DTITLE=Dana Dawson - Paris, New-York and Me
DYEAR=1991
DGENRE=Pop
TTITLE0=Romantic World
TTITLE1=Tell Me Bonita
TTITLE2=Survival
TTITLE3=I'm A Singer
TTITLE4=Every Time
TTITLE5=Number One In Your Heart
TTITLE6=Moving On
TTITLE7=That's Boy's No Good For You
TTITLE8=Ready To Follow You
TTITLE9=I Want My Chance
TTITLE10=I Will Go There With You
TTITLE11=Open Hearts
TTITLE12=Petite Chanson d'Amour
EXTD=
EXTT0=
EXTT1=
EXTT2=
EXTT3=
EXTT4=
EXTT5=
EXTT6=
EXTT7=
EXTT8=
EXTT9=
EXTT10=
EXTT11=
EXTT12=
PLAYORDER=
